<?xml version="1.0" encoding="UTF-8"?>
<svg version="1.1" xmlns="http://www.w3.org/2000/svg" width="502" height="511">
<path d="M0 0 C47.36135357 0.93036738 91.63093667 8.61255227 132.57250977 33.81420898 C135.70236519 35.73213514 138.40893136 37.24160717 142 38 C142 39.65 142 41.3 142 43 C141.42241943 43.20681396 140.84483887 43.41362793 140.24975586 43.62670898 C132.90578232 46.39474957 126.30319024 50.06786326 119.5625 54.0625 C118.48806641 54.68705078 117.41363281 55.31160156 116.30664062 55.95507812 C110.25649495 59.46222953 110.25649495 59.46222953 105 64 C103.09765625 64.6171875 103.09765625 64.6171875 101.0625 64.875 C100.39347656 64.97554688 99.72445313 65.07609375 99.03515625 65.1796875 C96.26739951 64.93531742 95.18538048 63.71681033 93 62 C76.9617801 53.54839873 58.4469092 45.31678114 40 46 C40 45.34 40 44.68 40 44 C-4.10904561 43.31447646 -45.21074734 47.97488066 -80 78 C-81.044833 78.85406672 -82.09184843 79.70546806 -83.140625 80.5546875 C-112.11295733 104.1898996 -131.72696221 139.37932947 -135.84326172 176.72607422 C-138.91216924 221.24913439 -126.10173034 261.20444218 -97 295 C-93.54700597 294.41890137 -91.92870743 293.28785339 -89.50390625 290.796875 C-88.86259766 290.14589844 -88.22128906 289.49492187 -87.56054688 288.82421875 C-86.90119141 288.13972656 -86.24183594 287.45523437 -85.5625 286.75 C-84.90701172 286.08097656 -84.25152344 285.41195313 -83.57617188 284.72265625 C-82.29286083 283.41231458 -81.0123509 282.09922285 -79.73486328 280.78320312 C-77.51265596 278.49907672 -75.25900377 276.24768989 -73 274 C-71.7625 272.7625 -71.7625 272.7625 -70.5 271.5 C-63 264 -63 264 -60.61962891 261.65063477 C-58.19017754 259.19242848 -55.88596665 256.66867169 -53.5859375 254.08984375 C-44.80625071 244.40203151 -35.40265628 235.29233637 -26.1394043 226.07073975 C-23.60540982 223.54706018 -21.07431338 221.02047759 -18.54296875 218.49414062 C-14.8408989 214.79996243 -11.13732482 211.10730326 -7.43212891 207.41625977 C-1.72086235 201.73642819 -1.72086235 201.73642819 3.94921875 196.015625 C4.52285156 195.43296875 5.09648437 194.8503125 5.6875 194.25 C6.26886719 193.65703125 6.85023438 193.0640625 7.44921875 192.453125 C10.26290693 189.81662122 12.72421822 189.66348863 16.5234375 189.71875 C24.0745087 190.5762849 31.11707512 193.58292821 37.28125 197.94921875 C38.97157088 199.11008801 38.97157088 199.11008801 41.0546875 199.45703125 C44.39122612 200.38831412 45.91689476 203.36870917 48 206 C48.66 206.33 49.32 206.66 50 207 C50 208.32 50 209.64 50 211 C49.34 211 48.68 211 48 211 C47.75378906 211.56460938 47.50757813 212.12921875 47.25390625 212.7109375 C45.78145746 215.39895928 44.01695721 217.37317156 41.9375 219.625 C41.12925781 220.50671875 40.32101562 221.3884375 39.48828125 222.296875 C38.66714844 223.18890625 37.84601563 224.0809375 37 225 C35.5396488 226.62318683 34.08128252 228.24816186 32.625 229.875 C28.80664559 234.11909428 24.95268592 238.32975081 21.09082031 242.53417969 C17.43137512 246.52141283 13.80219115 250.53470129 10.1875 254.5625 C7.92137684 257.08760867 5.64809385 259.60616628 3.375 262.125 C0.76678838 265.02101428 -1.8206549 267.93142136 -4.375 270.875 C-7.78750302 274.79305902 -11.29845584 278.61837613 -14.81640625 282.44140625 C-17.69116615 285.56682641 -20.54340592 288.71027721 -23.375 291.875 C-27.07745463 296.00363646 -30.84365031 300.06887725 -34.625 304.125 C-40.19776519 310.10736263 -45.69064436 316.12351114 -50.8125 322.5 C-51.534375 323.325 -52.25625 324.15 -53 325 C-53.66 325 -54.32 325 -55 325 C-54.52318678 327.92389651 -54.52318678 327.92389651 -53 331 C-50.54717493 332.52001753 -48.52397897 333.54143221 -45.875 334.5625 C-45.15997314 334.85350586 -44.44494629 335.14451172 -43.70825195 335.44433594 C-41.48366002 336.33075964 -39.24736604 337.17317166 -37 338 C-36.33564941 338.24669434 -35.67129883 338.49338867 -34.98681641 338.74755859 C2.97992872 352.50751137 48.96515741 348.82087659 85.265625 331.83984375 C121.40397711 314.30431694 149.05507413 285.94655457 165 249 C165.39058594 248.10023438 165.78117187 247.20046875 166.18359375 246.2734375 C169.65658597 237.54365939 171.3040794 228.21080366 173 219 C173.29390625 217.40478516 173.29390625 217.40478516 173.59375 215.77734375 C175.62935 196.8501784 174.7266391 177.48884797 168.8046875 159.3359375 C167.67491424 154.65231438 168.15192287 151.63994166 170.35546875 147.37890625 C170.96003906 146.44949219 171.56460937 145.52007812 172.1875 144.5625 C172.89648438 143.45003906 173.60546875 142.33757812 174.3359375 141.19140625 C174.74682617 140.54961426 175.15771484 139.90782227 175.58105469 139.24658203 C178.55545111 134.53729161 181.42309845 129.76171287 184.3125 125 C185.51686643 123.02079642 186.7212905 121.04162792 187.92578125 119.0625 C189.96202911 115.71513949 191.98677581 112.36126137 194 109 C195.88378906 109.29125977 195.88378906 109.29125977 198 110 C199.47912234 112.65682689 200.63430629 115.12797263 201.75 117.9375 C202.08926514 118.77434326 202.42853027 119.61118652 202.77807617 120.47338867 C210.05799114 138.92175448 215.12865799 157.24789928 217 177 C217.12890625 178.16789063 217.2578125 179.33578125 217.390625 180.5390625 C221.48772024 221.40219665 210.9077659 266.39429002 187 300 C186.22182759 301.1348489 185.44454845 302.27031062 184.66796875 303.40625 C180.1832209 309.89458031 175.49527671 315.96729207 170.1015625 321.7421875 C167.49530722 324.54221641 165.04797361 327.46318241 162.60546875 330.40625 C161 332 161 332 158.92578125 332.96875 C156.86342658 333.82703144 156.86342658 333.82703144 156.15234375 335.796875 C154.40858991 339.1306959 151.50700615 341.02437884 148.5625 343.25 C147.92852295 343.73597656 147.2945459 344.22195313 146.64135742 344.72265625 C145.35693981 345.70372545 144.06961007 346.68099464 142.77929688 347.65429688 C141.27467393 348.79226088 139.78412816 349.94880172 138.296875 351.109375 C96.13973275 383.19122539 41.89589161 393.85716774 -10 387 C-33.47703009 383.49011731 -56.63824195 376.37714775 -76.83813477 363.70605469 C-80.3983932 361.52449225 -80.3983932 361.52449225 -84.45996094 361.1796875 C-87.43956625 362.14195911 -88.78059417 363.30524722 -90.9609375 365.53515625 C-91.68023437 366.26283203 -92.39953125 366.99050781 -93.140625 367.74023438 C-94.24664062 368.88975586 -94.24664062 368.88975586 -95.375 370.0625 C-96.10460937 370.80177734 -96.83421875 371.54105469 -97.5859375 372.30273438 C-101.68569167 376.48667993 -105.60351136 380.7884478 -109.43212891 385.22045898 C-111.51906965 387.58914647 -113.73875133 389.79825787 -116 392 C-118.88989828 394.85523683 -121.68451745 397.71500196 -124.3125 400.8125 C-128.0456449 405.18409248 -132.1388065 409.16853016 -136.22607422 413.2043457 C-139.2554251 416.20954259 -142.17086363 419.24658351 -144.9375 422.5 C-151.99564483 430.72578854 -151.99564483 430.72578854 -156.3984375 431.328125 C-159.67681516 430.91463593 -160.9814721 429.8717735 -163.5 427.75 C-164.36109375 427.02683594 -165.2221875 426.30367188 -166.109375 425.55859375 C-169.91005538 422.194478 -173.65884386 418.77788187 -177.35742188 415.30175781 C-179.96680414 412.85037185 -182.59460797 410.49967963 -185.390625 408.26171875 C-186.25171875 407.51535156 -187.1128125 406.76898438 -188 406 C-188 405.34 -188 404.68 -188 404 C-188.61875 403.71125 -189.2375 403.4225 -189.875 403.125 C-192 402 -192 402 -194 400 C-193.48528653 395.34770065 -190.19984013 392.84589094 -186.99560547 389.75024414 C-186.36962463 389.13346298 -185.7436438 388.51668182 -185.09869385 387.88121033 C-183.73937543 386.54334597 -182.37672533 385.20886026 -181.01116562 383.87736702 C-178.85252621 381.77084896 -176.70465126 379.65390268 -174.55960083 377.53355408 C-168.45963688 371.50700922 -162.34316022 365.49743142 -156.21337891 359.5012207 C-152.46487208 355.83292916 -148.73099717 352.15026673 -145.00583267 348.45828056 C-143.58162991 347.05273792 -142.1517559 345.65291843 -140.71624374 344.2589283 C-138.71227151 342.31242199 -136.72730107 340.34829407 -134.74560547 338.37915039 C-134.14513397 337.80496368 -133.54466248 337.23077698 -132.92599487 336.63919067 C-131.091876 334.86112388 -131.091876 334.86112388 -129 332 C-129.01882644 327.22904524 -131.72258759 324.65897745 -134.8125 321.3125 C-141.75345001 313.44838641 -147.40398695 304.85083697 -153 296 C-153.38285156 295.40638672 -153.76570313 294.81277344 -154.16015625 294.20117188 C-180.46662751 253.09124354 -185.52850941 197.92720344 -175.94091797 150.94140625 C-170.60720188 127.1041903 -161.55418409 103.74618904 -147 84 C-146.61344238 83.4735791 -146.22688477 82.9471582 -145.82861328 82.40478516 C-140.28865591 74.9046366 -134.42990385 67.76014061 -128 61 C-127.4730957 60.44054687 -126.94619141 59.88109375 -126.40332031 59.3046875 C-113.69636271 45.89139143 -99.88580115 35.38321321 -84 26 C-83.19820313 25.48050781 -82.39640625 24.96101563 -81.5703125 24.42578125 C-63.36345203 12.74764348 -40.17174814 6.42363327 -19 3 C-18.24074219 2.86980469 -17.48148438 2.73960938 -16.69921875 2.60546875 C-11.15852903 1.77269975 -5.58594005 1.90758555 0 2 C0 1.34 0 0.68 0 0 Z " fill="#2F3030" transform="translate(234,40)"/>
<path d="M0 0 C-0.58359756 3.86009332 -1.71420794 6.61666195 -3.703125 9.96484375 C-4.26499512 10.9189917 -4.82686523 11.87313965 -5.40576172 12.85620117 C-6.01436035 13.87302979 -6.62295898 14.8898584 -7.25 15.9375 C-7.87535645 16.99493408 -8.50071289 18.05236816 -9.14501953 19.1418457 C-10.44756269 21.34306172 -11.75310511 23.54250552 -13.06152344 25.74023438 C-14.89685881 28.82655652 -16.7204732 31.91941268 -18.5390625 35.015625 C-23.52805378 43.50398984 -28.55488131 51.96149452 -33.74609375 60.328125 C-36.86059782 65.37551801 -39.89105533 70.47387719 -42.9375 75.5625 C-65.11451125 112.57456864 -65.11451125 112.57456864 -75.67333984 129.17529297 C-79.4339752 135.08782584 -83.13169538 141.03747478 -86.8125 147 C-90.61777811 153.16148231 -94.43164515 159.3149126 -98.34106445 165.41113281 C-102.32017433 171.62076947 -106.27136036 177.84828915 -110.21875 184.078125 C-118.135934 196.5636069 -126.17191807 208.96712087 -134.26318359 221.34033203 C-136.85160274 225.30409899 -139.42733969 229.27599384 -142 233.25 C-142.44303467 233.9315918 -142.88606934 234.61318359 -143.3425293 235.31542969 C-145.31050273 238.34999752 -147.25275501 241.39358084 -149.125 244.48828125 C-149.74375 245.50277344 -150.3625 246.51726562 -151 247.5625 C-151.515625 248.43003906 -152.03125 249.29757812 -152.5625 250.19140625 C-153.036875 250.78824219 -153.51125 251.38507813 -154 252 C-154.99 252 -155.98 252 -157 252 C-157 222.96 -157 193.92 -157 164 C-160.63 164 -164.26 164 -168 164 C-171.15427725 163.85196747 -174.29455906 163.68091919 -177.44360352 163.46508789 C-178.3167218 163.40817276 -179.18984009 163.35125763 -180.0894165 163.2926178 C-182.93615694 163.10613826 -185.78252373 162.91451525 -188.62890625 162.72265625 C-190.62945314 162.59026296 -192.63001807 162.45814185 -194.63059998 162.32627869 C-198.80718925 162.05023571 -202.98360906 161.7717945 -207.15991211 161.49145508 C-212.49098369 161.13366845 -217.82235054 160.78053793 -223.15384007 160.42903996 C-227.27964935 160.15674415 -231.40533797 159.88265621 -235.53098869 159.60796928 C-237.49599575 159.47722095 -239.46102858 159.34685954 -241.42608833 159.21690559 C-244.17943974 159.03441167 -246.9326316 158.84967174 -249.68579102 158.66430664 C-250.88231544 158.58554291 -250.88231544 158.58554291 -252.10301208 158.50518799 C-257.74856823 158.12174112 -263.37254902 157.59115615 -269 157 C-268.41561806 153.83044908 -268.26254729 153.19861771 -265.55957031 151.15380859 C-264.49319336 150.53328613 -263.42681641 149.91276367 -262.328125 149.2734375 C-261.45803802 148.75987198 -261.45803802 148.75987198 -260.57037354 148.2359314 C-259.34008271 147.511631 -258.1064796 146.79293173 -256.86987305 146.07946777 C-255.06798442 145.03924704 -253.2758421 143.98419166 -251.48632812 142.92285156 C-247.9163015 140.8084916 -244.33376392 138.71596318 -240.75 136.625 C-239.46507292 135.87378132 -238.18024326 135.12239598 -236.89550781 134.37084961 C-234.38636842 132.90313065 -231.87690708 131.4359649 -229.3671875 129.96923828 C-225.15738928 127.50721447 -220.95253096 125.03690159 -216.75 122.5625 C-216.08750244 122.17288086 -215.42500488 121.78326172 -214.74243164 121.38183594 C-211.55312219 119.50572475 -208.3664385 117.62534016 -205.18359375 115.73828125 C-195.55865092 110.04118186 -185.85906668 104.47944208 -176.14224243 98.94113159 C-169.1954684 94.98089399 -162.25655019 91.01046701 -155.375 86.9375 C-140.06044002 77.8739395 -124.63670227 68.98791382 -109.10546875 60.30078125 C-103.93409706 57.40787877 -98.78124046 54.48225322 -93.625 51.5625 C-86.68450492 47.63376809 -79.73056705 43.73204856 -72.75 39.875 C-65.88848304 36.07970669 -59.08981093 32.18434637 -52.31103516 28.2434082 C-45.56510519 24.32165901 -38.79795884 20.43823113 -32.0168457 16.57763672 C-27.36867839 13.93055361 -22.7315705 11.26644223 -18.109375 8.57421875 C-17.14950684 8.01790771 -16.18963867 7.46159668 -15.20068359 6.88842773 C-13.35164447 5.81629178 -11.5054852 4.73916984 -9.66259766 3.65649414 C-8.8329248 3.17688232 -8.00325195 2.69727051 -7.1484375 2.203125 C-6.05281494 1.56358887 -6.05281494 1.56358887 -4.93505859 0.91113281 C-3 0 -3 0 0 0 Z " fill="#FD9417" transform="translate(462,53)"/>
<path d="M0 0 C3.63 0 7.26 0 11 0 C11 28.38 11 56.76 11 86 C11.66 86 12.32 86 13 86 C13.12375 85.21625 13.2475 84.4325 13.375 83.625 C14 81 14 81 16 79 C17.485 79.495 17.485 79.495 19 80 C18.07544441 81.508013 17.1349253 83.00624917 16.1875 84.5 C15.66542969 85.3353125 15.14335937 86.170625 14.60546875 87.03125 C13.81076172 88.00578125 13.81076172 88.00578125 13 89 C12.01 89 11.02 89 10 89 C10 59.96 10 30.92 10 1 C6.7 1 3.4 1 0 1 C0 0.67 0 0.34 0 0 Z " fill="#EB8510" transform="translate(295,216)"/>
<path d="M0 0 C4.07549941 0.09361965 8.15046336 0.19973161 12.2253418 0.31738281 C13.61131907 0.3556435 14.99739465 0.39050156 16.38354492 0.421875 C18.3770164 0.46758699 20.37016914 0.52658925 22.36328125 0.5859375 C24.16212769 0.63306885 24.16212769 0.63306885 25.99731445 0.68115234 C29 1 29 1 32 3 C21.44 3 10.88 3 0 3 C0 2.01 0 1.02 0 0 Z " fill="#272627" transform="translate(234,40)"/>
<path d="M0 0 C0.66 0.33 1.32 0.66 2 1 C0.7934375 2.0828125 0.7934375 2.0828125 -0.4375 3.1875 C-3.02292072 6.02515689 -3.68042813 7.27166147 -4 11 C-6.64 11 -9.28 11 -12 11 C-11.83984375 9.23828125 -11.83984375 9.23828125 -11 7 C-8.56640625 5.04296875 -8.56640625 5.04296875 -5.5625 3.1875 C-4.57378906 2.56230469 -3.58507812 1.93710938 -2.56640625 1.29296875 C-1.71949219 0.86628906 -0.87257812 0.43960938 0 0 Z " fill="#F28F11" transform="translate(205,199)"/>
<path d="M0 0 C-5.77158283 3.56480116 -11.75854119 6.3785873 -18 9 C-18 8.34 -18 7.68 -18 7 C-15.75820623 5.63034792 -13.50827662 4.27947192 -11.25 2.9375 C-10.61578125 2.54755859 -9.9815625 2.15761719 -9.328125 1.75585938 C-5.74435102 -0.35334093 -3.96345928 -1.34013518 0 0 Z " fill="#F9900C" transform="translate(262,169)"/>
<path d="M0 0 C0.99 0 1.98 0 3 0 C1.51194289 5.80342274 -1.59097555 10.17590879 -5 15 C-5.33 13.68 -5.66 12.36 -6 11 C-5.01 10.67 -4.02 10.34 -3 10 C-2.87625 9.278125 -2.7525 8.55625 -2.625 7.8125 C-2.0095069 5.04278106 -1.11555626 2.6029646 0 0 Z " fill="#EF8B0C" transform="translate(395,161)"/>
<path d="M0 0 C0 3.67034745 -1.0752892 5.0999431 -3 8.1875 C-3.556875 9.08855469 -4.11375 9.98960937 -4.6875 10.91796875 C-5.120625 11.60503906 -5.55375 12.29210937 -6 13 C-6.33 11.68 -6.66 10.36 -7 9 C-6.34 9 -5.68 9 -5 9 C-4.67 7.35 -4.34 5.7 -4 4 C-3.34 4 -2.68 4 -2 4 C-2 3.01 -2 2.02 -2 1 C-1.34 0.67 -0.68 0.34 0 0 Z " fill="#F18A0E" transform="translate(373,200)"/>
<path d="M0 0 C-0.53115106 4.51478398 -2.36620292 7.34666857 -5 11 C-5.33 10.34 -5.66 9.68 -6 9 C-5.67 8.01 -5.34 7.02 -5 6 C-4.34 6 -3.68 6 -3 6 C-3.66 4.35 -4.32 2.7 -5 1 C-3 0 -3 0 0 0 Z " fill="#EF8A12" transform="translate(462,53)"/>
<path d="M0 0 C0.99 0 1.98 0 3 0 C1.44298069 4.67105792 -1.08447373 8.08705685 -4 12 C-4.33 11.01 -4.66 10.02 -5 9 C-4.67 8.34 -4.34 7.68 -4 7 C-3.34 7 -2.68 7 -2 7 C-2 6.01 -2 5.02 -2 4 C-1.34 4 -0.68 4 0 4 C0 2.68 0 1.36 0 0 Z " fill="#F48C0E" transform="translate(320,280)"/>
<path d="M0 0 C0.66 0 1.32 0 2 0 C0.35821735 4.77609498 -2.26546702 8.79382904 -5 13 C-6 11 -6 11 -5.6875 8.9375 C-5 7 -5 7 -3 6 C-1.95191959 4.02477154 -0.9479589 2.02518491 0 0 Z " fill="#F28A0E" transform="translate(351,233)"/>
<path d="M0 0 C0 0.66 0 1.32 0 2 C-6.45 6.09326923 -6.45 6.09326923 -9.234375 5.62109375 C-9.81703125 5.41613281 -10.3996875 5.21117188 -11 5 C-9.54462432 4.16151196 -8.08559627 3.32936066 -6.625 2.5 C-5.81289063 2.0359375 -5.00078125 1.571875 -4.1640625 1.09375 C-2 0 -2 0 0 0 Z " fill="#F08911" transform="translate(396,90)"/>
<path d="M0 0 C0.66 0 1.32 0 2 0 C0.54955729 4.10958767 -1.51110752 7.43258745 -4 11 C-4.33 10.34 -4.66 9.68 -5 9 C-4.67 8.01 -4.34 7.02 -4 6 C-3.34 6 -2.68 6 -2 6 C-1.855625 5.195625 -1.71125 4.39125 -1.5625 3.5625 C-1 1 -1 1 0 0 Z " fill="#EF830E" transform="translate(379,189)"/>
<path d="M0 0 C0.33 0.99 0.66 1.98 1 3 C-0.65 4.65 -2.3 6.3 -4 8 C-4.99 7.67 -5.98 7.34 -7 7 C-4.69 4.69 -2.38 2.38 0 0 Z " fill="#2A2A2A" transform="translate(196,278)"/>
<path d="M0 0 C0.66 0.33 1.32 0.66 2 1 C-0.97 5.95 -0.97 5.95 -4 11 C-5 8 -5 8 -4.0625 5.8125 C-3.711875 5.214375 -3.36125 4.61625 -3 4 C-2.34 4 -1.68 4 -1 4 C-0.67 2.68 -0.34 1.36 0 0 Z " fill="#F48B0E" transform="translate(428,109)"/>
<path d="M0 0 C0 0.66 0 1.32 0 2 C-1.65 2.33 -3.3 2.66 -5 3 C-5 3.66 -5 4.32 -5 5 C-6.98 5.99 -6.98 5.99 -9 7 C-9.66 6.34 -10.32 5.68 -11 5 C-9.54462432 4.16151196 -8.08559627 3.32936066 -6.625 2.5 C-5.81289063 2.0359375 -5.00078125 1.571875 -4.1640625 1.09375 C-2 0 -2 0 0 0 Z " fill="#F68B0D" transform="translate(331,127)"/>
<path d="M0 0 C0.99 0.33 1.98 0.66 3 1 C0.525 4.465 0.525 4.465 -2 8 C-2.33 6.68 -2.66 5.36 -3 4 C-2.34 4 -1.68 4 -1 4 C-0.67 2.68 -0.34 1.36 0 0 Z " fill="#F48C0F" transform="translate(338,253)"/>
<path d="M0 0 C0.66 0.33 1.32 0.66 2 1 C0.8141763 4.37503669 -0.27573689 6.64722731 -3 9 C-3 7.68 -3 6.36 -3 5 C-2.34 5 -1.68 5 -1 5 C-0.67 3.35 -0.34 1.7 0 0 Z " fill="#EF8C10" transform="translate(406,144)"/>
</svg>
